<svg width="522" height="50" viewBox="0 0 522 50" fill="none" xmlns="http://www.w3.org/2000/svg">
<path d="M342.208 17.1107V0.510742H347.308C348.708 0.510742 350.008 0.810742 351.208 1.51074C352.408 2.21074 353.308 3.11074 353.908 4.31074C354.608 5.61074 354.908 7.01074 354.908 8.51074V9.31074C354.908 10.7107 354.608 12.2107 353.908 13.4107C353.308 14.6107 352.408 15.5107 351.208 16.2107C350.008 16.9107 348.608 17.2107 347.308 17.2107L342.208 17.1107ZM345.608 3.21074V14.4107H347.308C348.508 14.5107 349.608 14.0107 350.408 13.1107C351.208 12.0107 351.608 10.7107 351.508 9.31074V8.41074C351.608 7.01074 351.208 5.71074 350.508 4.61074C349.708 3.71074 348.608 3.21074 347.408 3.31074L345.608 3.21074Z" fill="white"/>
<path d="M367.608 9.91074H361.008V14.4107H368.708V17.1107H357.508V0.510742H368.708V3.31074H361.008V7.21074H367.608V9.91074Z" fill="white"/>
<path d="M376.808 17.1107V0.510742H381.908C383.308 0.510742 384.608 0.810742 385.808 1.51074C387.008 2.21074 387.908 3.11074 388.508 4.31074C389.208 5.61074 389.508 7.01074 389.508 8.51074V9.31074C389.508 10.7107 389.208 12.2107 388.508 13.4107C387.908 14.6107 387.008 15.5107 385.808 16.2107C384.608 16.9107 383.208 17.2107 381.908 17.2107L376.808 17.1107ZM380.208 3.21074V14.4107H381.908C383.108 14.5107 384.208 14.0107 385.008 13.1107C385.808 12.0107 386.208 10.7107 386.108 9.31074V8.41074C386.208 7.01074 385.808 5.71074 385.108 4.61074C384.308 3.71074 383.208 3.21074 382.008 3.31074L380.208 3.21074Z" fill="white"/>
<path d="M402.208 9.91074H395.608V14.4107H403.308V17.1107H392.108V0.510742H403.308V3.31074H395.608V7.21074H402.208V9.91074Z" fill="white"/>
<path d="M414.108 12.8107C414.108 12.2107 413.908 11.7107 413.408 11.3107C412.608 10.8107 411.808 10.4107 410.908 10.2107C409.908 9.91073 409.008 9.51073 408.108 9.11073C406.208 8.11073 405.308 6.71073 405.308 5.01073C405.308 4.11073 405.608 3.31073 406.108 2.61073C406.708 1.91073 407.408 1.31073 408.308 0.91073C409.308 0.51073 410.408 0.31073 411.508 0.31073C412.608 0.31073 413.708 0.51073 414.708 0.91073C415.608 1.31073 416.408 1.91073 416.908 2.71073C417.408 3.51073 417.708 4.41073 417.708 5.41073H414.308C414.308 4.71073 414.108 4.11073 413.608 3.61073C413.008 3.21073 412.308 2.91073 411.608 3.01073C410.908 2.91073 410.208 3.11073 409.608 3.51073C409.208 3.81073 408.908 4.31073 408.908 4.91073C408.908 5.51073 409.208 6.01073 409.708 6.31073C410.508 6.71073 411.308 7.11073 412.108 7.31073C413.708 7.71073 415.108 8.41073 416.408 9.51073C417.308 10.3107 417.808 11.5107 417.708 12.8107C417.708 14.1107 417.108 15.4107 416.008 16.2107C414.708 17.1107 413.208 17.5107 411.608 17.4107C410.408 17.4107 409.208 17.2107 408.108 16.7107C407.108 16.3107 406.308 15.6107 405.708 14.8107C405.108 14.0107 404.908 13.0107 404.908 12.0107H408.408C408.408 13.8107 409.508 14.8107 411.708 14.8107C412.408 14.8107 413.008 14.7107 413.608 14.3107C413.808 13.8107 414.108 13.3107 414.108 12.8107Z" fill="white"/>
<path d="M429.408 13.7107H423.408L422.208 17.1107H418.608L424.808 0.510742H428.008L434.208 17.1107H430.608L429.408 13.7107ZM424.308 10.9107H428.508L426.408 4.71074L424.308 10.9107Z" fill="white"/>
<path d="M442.008 11.0107H439.308V17.1107H435.808V0.510726H442.008C443.608 0.410726 445.208 0.910726 446.508 1.81073C447.608 2.71073 448.208 4.11073 448.108 5.51073C448.108 6.51073 447.908 7.51073 447.408 8.41073C446.808 9.21073 446.108 9.81073 445.208 10.2107L448.808 17.0107V17.1107H445.108L442.008 11.0107ZM439.308 8.31073H442.108C442.808 8.31073 443.508 8.11073 444.108 7.61073C444.608 7.11073 444.908 6.51073 444.908 5.81073C444.908 5.11073 444.708 4.41073 444.208 3.91073C443.608 3.41073 442.908 3.21073 442.208 3.21073H439.408L439.308 8.31073Z" fill="white"/>
<path d="M457.108 11.0107H454.408V17.1107H451.008V0.510726H457.208C458.808 0.410726 460.408 0.910726 461.808 1.81073C462.908 2.71073 463.508 4.11073 463.408 5.51073C463.408 6.51073 463.208 7.51073 462.708 8.41073C462.108 9.21073 461.408 9.81073 460.508 10.2107L464.108 17.0107V17.1107H460.408L457.108 11.0107ZM454.408 8.31073H457.208C457.908 8.31073 458.608 8.11073 459.208 7.61073C459.708 7.11073 459.908 6.51073 459.908 5.81073C459.908 5.11073 459.708 4.41073 459.208 3.91073C458.608 3.41073 457.908 3.21073 457.108 3.21073H454.308L454.408 8.31073Z" fill="white"/>
<path d="M479.708 9.21078C479.708 10.7108 479.408 12.2108 478.808 13.5108C478.308 14.7108 477.408 15.7108 476.308 16.4108C474.008 17.7108 471.208 17.7108 468.908 16.4108C467.808 15.7108 466.908 14.7108 466.408 13.6108C465.808 12.3108 465.508 10.8108 465.508 9.31078V8.51078C465.508 7.01078 465.808 5.51078 466.408 4.11078C466.908 2.91078 467.808 1.91078 468.908 1.21078C471.208 -0.0892212 474.008 -0.0892212 476.308 1.21078C477.408 1.91078 478.308 2.91078 478.808 4.11078C479.408 5.51078 479.708 6.91078 479.708 8.41078V9.21078ZM476.208 8.41078C476.308 7.01078 476.008 5.61078 475.308 4.41078C474.208 2.91078 472.108 2.61078 470.608 3.71078C470.308 3.91078 470.108 4.11078 469.908 4.41078C469.208 5.61078 468.808 7.01078 468.908 8.31078V9.11078C468.808 10.5108 469.108 11.9108 469.808 13.1108C470.908 14.6108 472.908 14.9108 474.408 13.9108C474.708 13.7108 474.908 13.4108 475.208 13.1108C475.908 11.9108 476.208 10.5108 476.108 9.11078L476.208 8.41078Z" fill="white"/>
<path d="M485.708 14.4107H493.008V17.1107H482.308V0.510742H485.708V14.4107Z" fill="white"/>
<path d="M498.508 14.4107H505.808V17.1107H495.108V0.510742H498.508V14.4107Z" fill="white"/>
<path d="M520.908 9.21078C520.908 10.7108 520.608 12.2108 520.008 13.5108C519.508 14.7108 518.608 15.7108 517.508 16.4108C515.208 17.7108 512.408 17.7108 510.108 16.4108C509.008 15.7108 508.108 14.7108 507.608 13.6108C507.008 12.3108 506.708 10.8108 506.708 9.31078V8.51078C506.708 7.01078 507.008 5.51078 507.608 4.11078C508.108 2.91078 509.008 1.91078 510.108 1.21078C512.408 -0.0892212 515.208 -0.0892212 517.508 1.21078C518.608 1.91078 519.508 2.91078 520.008 4.11078C520.608 5.51078 520.908 6.91078 520.908 8.41078V9.21078ZM517.408 8.41078C517.508 7.01078 517.208 5.61078 516.508 4.41078C515.408 2.91078 513.308 2.61078 511.808 3.71078C511.508 3.91078 511.308 4.11078 511.108 4.41078C510.408 5.61078 510.108 7.01078 510.108 8.31078V9.11078C510.008 10.5108 510.308 11.9108 511.008 13.1108C512.108 14.6108 514.108 14.9108 515.608 13.9108C515.908 13.7108 516.108 13.4108 516.408 13.1108C517.108 11.9108 517.408 10.5108 517.308 9.11078V8.41078H517.408Z" fill="white"/>
<path d="M354.108 40.9108C354.108 40.1108 353.808 39.4108 353.208 38.9108C352.208 38.3108 351.108 37.8108 349.908 37.4108C348.608 37.0108 347.408 36.5108 346.208 35.9108C343.708 34.6108 342.408 32.7108 342.408 30.4108C342.408 29.3108 342.708 28.1108 343.408 27.2108C344.108 26.2108 345.108 25.4108 346.308 25.0108C347.608 24.5108 349.108 24.2108 350.508 24.2108C351.908 24.2108 353.408 24.5108 354.708 25.1108C355.908 25.6108 356.908 26.4108 357.608 27.5108C358.308 28.6108 358.608 29.8108 358.608 31.0108H354.108C354.108 30.1108 353.808 29.2108 353.108 28.6108C352.308 28.0108 351.408 27.7108 350.408 27.8108C349.508 27.7108 348.608 28.0108 347.808 28.5108C347.208 28.9108 346.908 29.6108 346.908 30.4108C346.908 31.1108 347.308 31.8108 348.008 32.2108C349.008 32.8108 350.108 33.3108 351.208 33.6108C353.308 34.1108 355.208 35.1108 356.808 36.5108C358.008 37.6108 358.608 39.2108 358.608 40.8108C358.708 42.6108 357.908 44.3108 356.408 45.3108C354.708 46.5108 352.608 47.0108 350.608 46.9108C349.008 46.9108 347.408 46.6108 346.008 46.0108C344.708 45.5108 343.608 44.6108 342.808 43.5108C342.108 42.4108 341.708 41.1108 341.708 39.7108H346.308C346.308 42.1108 347.808 43.4108 350.708 43.4108C351.608 43.5108 352.508 43.2108 353.208 42.7108C353.708 42.3108 354.108 41.6108 354.108 40.9108Z" fill="white"/>
<path d="M379.808 36.2108C379.808 38.2108 379.408 40.1108 378.708 41.9108C378.008 43.5108 376.808 44.8108 375.408 45.7108C372.408 47.5108 368.608 47.5108 365.608 45.7108C364.108 44.8108 363.008 43.5108 362.308 41.9108C361.508 40.1108 361.108 38.2108 361.108 36.3108V35.2108C361.108 33.2108 361.508 31.3108 362.308 29.5108C363.008 27.9108 364.208 26.6108 365.608 25.7108C368.608 23.9108 372.408 23.9108 375.408 25.7108C376.908 26.6108 378.008 27.9108 378.708 29.5108C379.508 31.3108 379.908 33.2108 379.908 35.2108V36.2108H379.808ZM375.208 35.2108C375.308 33.4108 374.908 31.5108 374.008 29.9108C372.608 27.9108 369.808 27.5108 367.908 29.0108C367.508 29.3108 367.208 29.6108 367.008 29.9108C366.108 31.5108 365.708 33.3108 365.808 35.1108V36.2108C365.708 38.0108 366.108 39.9108 367.008 41.4108C368.408 43.4108 371.108 43.8108 373.108 42.5108C373.508 42.2108 373.808 41.9108 374.108 41.5108C375.008 39.9108 375.508 38.1108 375.308 36.3108L375.208 35.2108Z" fill="white"/>
<path d="M394.608 40.9108C394.608 40.1108 394.308 39.4108 393.708 38.9108C392.708 38.3108 391.608 37.8108 390.408 37.4108C389.108 37.0108 387.908 36.5108 386.708 35.9108C384.208 34.6108 382.908 32.7108 382.908 30.4108C382.908 29.3108 383.208 28.1108 383.908 27.2108C384.608 26.2108 385.608 25.4108 386.808 25.0108C388.108 24.5108 389.608 24.2108 391.008 24.2108C392.408 24.2108 393.908 24.5108 395.208 25.1108C396.408 25.6108 397.408 26.4108 398.108 27.5108C398.808 28.6108 399.108 29.8108 399.108 31.0108H394.608C394.608 30.1108 394.308 29.2108 393.608 28.6108C392.808 28.0108 391.908 27.7108 390.908 27.8108C390.008 27.7108 389.108 28.0108 388.308 28.5108C387.708 28.9108 387.408 29.6108 387.408 30.4108C387.408 31.1108 387.808 31.8108 388.508 32.2108C389.508 32.8108 390.608 33.3108 391.708 33.6108C393.808 34.1108 395.708 35.1108 397.308 36.5108C398.508 37.6108 399.108 39.2108 399.108 40.8108C399.208 42.6108 398.408 44.2108 396.908 45.3108C395.208 46.5108 393.108 47.0108 391.108 46.9108C389.508 46.9108 388.008 46.6108 386.508 46.0108C385.208 45.5108 384.108 44.6108 383.308 43.4108C382.608 42.3108 382.208 41.0108 382.208 39.6108H386.808C386.808 42.0108 388.308 43.3108 391.208 43.3108C392.108 43.4108 393.008 43.1108 393.708 42.6108C394.308 42.4108 394.608 41.7108 394.608 40.9108Z" fill="white"/>
<path d="M418.808 28.3108H412.108V46.7108H407.508V28.3108H400.808V24.6108H418.808V28.3108Z" fill="white"/>
<path d="M434.708 37.1108H425.908V43.0108H436.208V46.7108H421.408V24.6108H436.208V28.3108H425.908V33.6108H434.708V37.1108Z" fill="white"/>
<path d="M456.808 46.7108H452.208L443.408 32.2108V46.7108H438.808V24.6108H443.408L452.308 39.2108V24.6108H456.808V46.7108Z" fill="white"/>
<path d="M465.508 24.6108H461.008V46.7108H465.508V24.6108Z" fill="white"/>
<path d="M469.808 46.7107V24.7107H477.508C479.608 24.6107 481.808 25.1107 483.608 26.2107C485.008 27.3107 485.808 29.0107 485.708 30.7107C485.708 31.7107 485.408 32.7107 484.908 33.6107C484.308 34.4107 483.508 35.1107 482.608 35.4107C483.708 35.6107 484.608 36.2107 485.308 37.1107C486.008 38.0107 486.308 39.1107 486.308 40.3107C486.408 42.1107 485.708 43.9107 484.308 45.1107C482.608 46.3107 480.608 46.9107 478.508 46.8107L469.808 46.7107ZM474.308 33.9107H477.708C480.008 33.9107 481.108 32.9107 481.108 31.2107C481.208 30.4107 480.908 29.6107 480.208 29.0107C479.408 28.5107 478.408 28.3107 477.408 28.3107H474.208V33.9107H474.308ZM474.308 37.1107V43.1107H478.208C479.108 43.2107 480.008 42.9107 480.708 42.3107C481.308 41.8107 481.608 41.0107 481.608 40.2107C481.608 38.2107 480.608 37.2107 478.508 37.1107H474.308Z" fill="white"/>
<path d="M494.108 43.0108H503.808V46.7108H489.608V24.6108H494.108V43.0108Z" fill="white"/>
<path d="M519.608 37.1108H510.908V43.0108H521.208V46.7108H506.408V24.6108H521.108V28.3108H510.908V33.6108H519.608V37.1108Z" fill="white"/>
<path d="M39.2083 26.7107C39.3083 30.8107 38.5083 34.9107 36.9083 38.6107C35.5083 41.9107 33.1083 44.6107 30.1083 46.6107C23.8083 50.3107 16.0083 50.4107 9.60834 46.8107C6.60834 44.9107 4.10834 42.2107 2.60834 39.0107C0.908339 35.3107 0.00833332 31.3107 0.00833332 27.3107V25.0107C-0.0916667 20.9107 0.708335 16.8107 2.40833 13.0107C3.90833 9.71075 6.20834 6.91075 9.30834 5.01075C15.6083 1.31075 23.4083 1.21075 29.7083 4.91075C32.8083 6.81075 35.2083 9.51075 36.7083 12.8107C38.4083 16.5107 39.3083 20.6107 39.2083 24.7107V26.7107ZM29.6083 24.7107C29.6083 19.9107 28.7083 16.2107 26.9083 13.7107C23.9083 9.61075 18.1083 8.81075 14.1083 11.8107C13.4083 12.3107 12.7083 13.0107 12.2083 13.7107C10.5083 16.2107 9.60834 19.8107 9.70834 24.6107V26.8107C9.70834 31.5107 10.6083 35.1107 12.4083 37.7107C15.3083 41.8107 20.9083 42.7107 25.0083 39.8107C25.8083 39.2107 26.6083 38.5107 27.1083 37.7107C28.8083 35.2107 29.6083 31.6107 29.6083 26.8107V24.7107Z" fill="white"/>
<path d="M45.0083 48.6107L44.7083 2.61074L60.8083 2.51074C66.4083 2.51074 70.6083 3.51074 73.5083 5.61074C76.4083 7.71074 77.9083 10.8107 77.9083 15.0107C78.0083 17.1107 77.4083 19.2107 76.2083 21.0107C75.0083 22.7107 73.4083 24.1107 71.4083 24.8107C73.6083 25.3107 75.6083 26.5107 77.0083 28.3107C78.4083 30.2107 79.1083 32.5107 79.1083 34.9107C79.1083 39.3107 77.7083 42.7107 74.9083 45.0107C72.1083 47.3107 68.1083 48.5107 62.9083 48.5107L45.0083 48.6107ZM54.3083 21.8107H61.3083C66.1083 21.7107 68.5083 19.8107 68.4083 16.0107C68.5083 14.3107 67.9083 12.6107 66.5083 11.5107C65.3083 10.6107 63.4083 10.1107 60.7083 10.2107H54.1083L54.3083 21.8107ZM54.4083 28.5107L54.5083 40.9107L62.6083 40.8107C64.5083 40.9107 66.3083 40.3107 67.8083 39.2107C69.1083 38.1107 69.7083 36.5107 69.7083 34.8107C69.7083 30.6107 67.5083 28.5107 63.1083 28.4107L54.4083 28.5107Z" fill="white"/>
<path d="M103.308 2.21078L112.808 2.11078L113.008 33.9108C113.108 36.6108 112.408 39.3108 111.108 41.7108C109.808 43.9108 107.908 45.8108 105.708 46.9108C103.208 48.2108 100.508 48.8108 97.7083 48.8108C92.8083 48.8108 89.0083 47.6108 86.3083 45.2108C83.6083 42.8108 82.2083 39.3108 82.2083 34.7108L91.7083 34.6108C91.6083 36.4108 92.1084 38.2108 93.1084 39.6108C94.3084 40.8108 95.9084 41.3108 97.6084 41.2108C99.3084 41.3108 100.808 40.6108 101.908 39.3108C103.108 37.8108 103.608 35.9108 103.508 34.0108L103.308 2.21078Z" fill="white"/>
<path d="M147.508 28.0108L129.308 28.1108L129.408 40.4108L150.808 40.3108V47.9108L120.008 48.1108L119.708 2.11077L150.508 1.91077V9.51077L129.208 9.71077L129.308 20.6108L147.508 20.5108V28.0108Z" fill="white"/>
<path d="M190.208 9.31078L176.108 9.41078L176.308 47.7108L166.908 47.8108L166.608 9.41078L152.708 9.51078L152.608 1.91078L190.108 1.61078L190.208 9.31078Z" fill="white"/>
<path d="M204.358 1.4791L194.858 1.54376L195.171 47.5438L204.671 47.4791L204.358 1.4791Z" fill="white"/>
<path d="M229.108 35.9108L239.308 1.31075L249.908 1.21075L234.208 47.3108L224.308 47.4108L208.008 1.51075L218.508 1.41075L229.108 35.9108Z" fill="white"/>
<path d="M324.608 34.6108C324.708 33.0108 324.008 31.5107 322.708 30.5107C320.608 29.2107 318.308 28.2107 315.908 27.5107C313.208 26.7107 310.608 25.7107 308.108 24.4107C302.908 21.6107 300.208 17.8108 300.208 13.0108C300.208 10.6108 300.908 8.31075 302.308 6.31075C303.808 4.21075 305.908 2.61075 308.308 1.71075C311.108 0.510751 314.108 0.010751 317.108 0.010751C320.108 -0.089249 323.108 0.510751 325.908 1.71075C328.308 2.81075 330.408 4.51075 331.908 6.71075C333.308 8.91075 334.108 11.5108 334.108 14.1108L324.608 14.2108C324.708 12.4108 324.008 10.6108 322.608 9.31075C321.008 8.11075 319.008 7.41075 317.008 7.61075C315.108 7.51075 313.208 8.01075 311.608 9.11075C310.408 10.0108 309.708 11.5108 309.708 13.0108C309.708 14.6108 310.608 16.0108 312.008 16.7108C314.108 18.0108 316.308 18.9107 318.708 19.5107C324.108 21.1107 328.008 23.1107 330.508 25.5107C333.008 27.8107 334.308 31.1108 334.308 34.4108C334.508 38.1108 332.808 41.6108 329.808 43.8108C326.808 46.1108 322.808 47.2108 317.708 47.3108C314.408 47.4108 311.108 46.7108 308.008 45.4108C305.308 44.3108 303.008 42.5108 301.308 40.1108C299.708 37.8108 298.908 35.0108 298.908 32.2108L308.408 32.1108C308.408 37.2108 311.508 39.7108 317.508 39.6108C319.408 39.7108 321.308 39.2108 322.808 38.2108C324.008 37.6108 324.708 36.1108 324.608 34.6108Z" fill="white"/>
<path d="M261.408 18.5107C262.008 17.5107 262.708 16.6107 263.508 15.9107L256.708 8.51074C255.008 10.1107 253.608 12.0107 252.408 14.1107L261.408 18.5107Z" fill="#5AB338"/>
<path d="M277.908 13.3107C278.908 13.8107 279.908 14.4107 280.708 15.1107L287.508 7.71074C285.708 6.21074 283.708 4.91074 281.508 4.01074L277.908 13.3107Z" fill="#C78D17"/>
<path d="M293.408 15.5107L284.408 20.0107C284.808 21.0107 285.108 22.1107 285.308 23.2107L295.308 22.3107C295.008 19.9107 294.408 17.6107 293.408 15.5107Z" fill="#C60A1C"/>
<path d="M283.808 18.7108L292.808 14.2108C291.708 12.1108 290.308 10.3108 288.608 8.61078L281.808 16.1108C282.608 16.9108 283.308 17.8108 283.808 18.7108Z" fill="#358E34"/>
<path d="M259.608 25.1108C259.608 24.9108 259.608 24.7108 259.608 24.5108L249.608 23.6108C249.608 24.1108 249.508 24.6108 249.508 25.1108C249.508 27.0108 249.708 28.9108 250.208 30.7108L259.808 27.9108C259.708 27.0108 259.608 26.1108 259.608 25.1108Z" fill="#365E24"/>
<path d="M282.508 33.3107C281.808 34.2107 281.008 34.9107 280.108 35.6107L285.408 44.1107C287.408 42.8107 289.108 41.2107 290.608 39.3107L282.508 33.3107Z" fill="#FFAD14"/>
<path d="M285.508 25.1107C285.508 26.0107 285.408 27.0107 285.208 27.9107L294.808 30.7107C295.208 28.9107 295.508 27.1107 295.508 25.2107C295.508 24.7107 295.508 24.3107 295.508 23.8107L285.508 24.7107C285.508 24.8107 285.508 24.9107 285.508 25.1107Z" fill="#FD2919"/>
<path d="M262.708 33.5107L254.708 39.6107C256.208 41.4107 257.908 43.0107 259.908 44.3107L265.208 35.8107C264.208 35.1107 263.408 34.4107 262.708 33.5107Z" fill="#FE8B17"/>
<path d="M259.708 23.1108C259.908 22.0108 260.208 20.9108 260.708 19.9108L251.708 15.4108C250.708 17.5108 250.008 19.8108 249.708 22.2108L259.708 23.1108Z" fill="#3067A5"/>
<path d="M284.208 44.9108L278.908 36.4108C277.908 36.9108 276.908 37.4108 275.808 37.6108L277.708 47.5108C280.008 47.0108 282.208 46.1108 284.208 44.9108Z" fill="#7D0425"/>
<path d="M284.808 29.2108C284.408 30.2108 284.008 31.2108 283.408 32.1108L291.408 38.1108C292.708 36.2108 293.708 34.2108 294.408 31.9108L284.808 29.2108Z" fill="#46A9BE"/>
<path d="M274.408 37.9108C273.808 38.0108 273.208 38.0108 272.508 38.0108C272.008 38.0108 271.508 38.0108 271.008 37.9108L269.108 47.8108C270.208 48.0108 271.308 48.0108 272.508 48.0108C273.808 48.0108 275.008 47.9108 276.208 47.7108L274.408 37.9108Z" fill="#FE5413"/>
<path d="M273.408 12.2108C274.508 12.3108 275.608 12.5108 276.608 12.8108L280.208 3.41078C278.108 2.61078 275.808 2.21078 273.408 2.11078V12.2108Z" fill="#FC121B"/>
<path d="M269.608 37.7107C268.508 37.4107 267.408 37.0107 266.408 36.5107L261.108 45.0107C263.108 46.2107 265.308 47.0107 267.708 47.5107L269.608 37.7107Z" fill="#E61384"/>
<path d="M268.608 12.7108C269.608 12.4108 270.708 12.2108 271.908 12.1108V2.11078C269.508 2.21078 267.208 2.61078 265.008 3.41078L268.608 12.7108Z" fill="#09154F"/>
<path d="M261.808 32.3108C261.208 31.4108 260.608 30.3108 260.308 29.2108L250.708 32.0108C251.408 34.3108 252.508 36.4108 253.908 38.4108L261.808 32.3108Z" fill="#C67515"/>
<path d="M264.508 14.9108C265.308 14.2108 266.308 13.7108 267.308 13.2108L263.708 3.91077C261.508 4.81077 259.608 6.01077 257.808 7.51077L264.508 14.9108Z" fill="#153774"/>
</svg>
