<svg width="514" height="232" viewBox="0 0 514 232" fill="none" xmlns="http://www.w3.org/2000/svg">
<path d="M1.60001 145.672V98.1719H16.2C20.2 98.1719 23.9 99.0719 27.4 101.072C30.8 103.072 33.4 105.672 35.1 109.072C37.1 112.772 38 116.772 38 121.072V123.372C38 127.372 37.1 131.672 35.1 135.072C33.4 138.472 30.8 141.072 27.4 143.072C24 145.072 20 145.972 16.2 145.972L1.60001 145.672ZM11.3 105.872V137.872H16.2C19.6 138.172 22.8 136.772 25.1 134.172C27.4 131.072 28.5 127.272 28.2 123.272V120.672C28.5 116.672 27.3 112.972 25.3 109.772C23 107.172 19.9 105.772 16.4 106.072L11.3 105.872Z" fill="white"/>
<path d="M74.3 125.072H55.4V137.972H77.4V145.672H45.4V98.1719H77.4V106.172H55.4V117.372H74.3V125.072Z" fill="white"/>
<path d="M100.6 145.672V98.1719H115.2C119.2 98.1719 122.9 99.0719 126.4 101.072C129.8 103.072 132.4 105.672 134.1 109.072C136.1 112.772 137 116.772 137 121.072V123.372C137 127.372 136.1 131.672 134.1 135.072C132.4 138.472 129.8 141.072 126.4 143.072C123 145.072 119 145.972 115.2 145.972L100.6 145.672ZM110.3 105.872V137.872H115.2C118.6 138.172 121.8 136.772 124.1 134.172C126.4 131.072 127.5 127.272 127.2 123.272V120.672C127.5 116.672 126.3 112.972 124.3 109.772C122 107.172 118.9 105.772 115.4 106.072L110.3 105.872Z" fill="white"/>
<path d="M173.2 125.072H154.4V137.972H176.4V145.672H144.4V98.1719H176.4V106.172H154.4V117.372H173.2V125.072Z" fill="white"/>
<path d="M207.3 133.372C207.3 131.672 206.7 130.272 205.3 129.072C203 127.672 200.7 126.472 198.1 125.972C195.2 125.072 192.7 123.972 190.1 122.872C184.7 119.972 182.1 115.972 182.1 111.172C182.1 108.572 183 106.272 184.4 104.272C186.1 102.272 188.1 100.572 190.7 99.3719C193.6 98.2719 196.7 97.6719 199.9 97.6719C203.1 97.6719 206.2 98.2719 209.1 99.3719C211.7 100.472 214 102.272 215.4 104.472C216.8 106.772 217.7 109.372 217.7 112.172H208C208 110.172 207.4 108.472 206 107.072C204.3 105.972 202.3 105.072 200.3 105.372C198.3 105.072 196.3 105.672 194.6 106.772C193.5 107.672 192.6 109.072 192.6 110.772C192.6 112.472 193.5 113.872 194.9 114.772C197.2 115.872 199.5 117.072 201.8 117.672C206.4 118.772 210.4 120.772 214.1 123.972C216.7 126.272 218.1 129.672 217.8 133.372C217.8 137.072 216.1 140.772 212.9 143.072C209.2 145.672 204.9 146.772 200.3 146.472C196.9 146.472 193.4 145.872 190.3 144.472C187.4 143.372 185.2 141.372 183.4 139.072C181.7 136.772 181.1 133.972 181.1 131.072H191.1C191.1 136.172 194.2 139.072 200.5 139.072C202.5 139.072 204.2 138.772 205.9 137.672C206.4 136.272 207.3 134.772 207.3 133.372Z" fill="white"/>
<path d="M251.1 135.972H233.9L230.5 145.672H220.2L237.9 98.1719H247.1L264.8 145.672H254.5L251.1 135.972ZM236.5 127.972H248.5L242.5 110.272L236.5 127.972Z" fill="white"/>
<path d="M287.1 128.272H279.4V145.772H269.4V98.272H287.1C291.7 97.972 296.3 99.372 300 101.972C303.1 104.572 304.9 108.572 304.6 112.572C304.6 115.472 304 118.272 302.6 120.872C300.9 123.172 298.9 124.872 296.3 125.972L306.6 145.472V145.772H296L287.1 128.272ZM279.4 120.472H287.4C289.4 120.472 291.4 119.872 293.1 118.472C294.5 117.072 295.4 115.372 295.4 113.372C295.4 111.372 294.8 109.372 293.4 107.972C291.7 106.572 289.7 105.972 287.7 105.972H279.7L279.4 120.472Z" fill="white"/>
<path d="M330.3 128.272H322.6V145.772H312.9V98.272H330.6C335.2 97.972 339.8 99.372 343.8 101.972C346.9 104.572 348.7 108.572 348.4 112.572C348.4 115.472 347.8 118.272 346.4 120.872C344.7 123.172 342.7 124.872 340.1 125.972L350.4 145.472V145.772H339.8L330.3 128.272ZM322.6 120.472H330.6C332.6 120.472 334.6 119.872 336.3 118.472C337.7 117.072 338.3 115.372 338.3 113.372C338.3 111.372 337.7 109.372 336.3 107.972C334.6 106.572 332.6 105.972 330.3 105.972H322.3L322.6 120.472Z" fill="white"/>
<path d="M395 123.072C395 127.372 394.1 131.672 392.4 135.372C391 138.772 388.4 141.672 385.2 143.672C378.6 147.372 370.6 147.372 364 143.672C360.9 141.672 358.3 138.772 356.8 135.672C355.1 131.972 354.2 127.672 354.2 123.372V121.072C354.2 116.772 355.1 112.472 356.8 108.472C358.2 105.072 360.8 102.172 364 100.172C370.6 96.472 378.6 96.472 385.2 100.172C388.3 102.172 390.9 105.072 392.4 108.472C394.1 112.472 395 116.472 395 120.772V123.072ZM385 120.772C385.3 116.772 384.4 112.772 382.4 109.372C379.3 105.072 373.2 104.272 369 107.372C368.1 107.972 367.6 108.472 367 109.372C365 112.772 363.9 116.772 364.1 120.572V122.872C363.8 126.872 364.7 130.872 366.7 134.272C369.8 138.572 375.6 139.372 379.9 136.572C380.8 135.972 381.3 135.172 382.2 134.272C384.2 130.872 385.1 126.872 384.8 122.872L385 120.772Z" fill="white"/>
<path d="M412.1 137.972H433V145.672H402.4V98.1719H412.1V137.972Z" fill="white"/>
<path d="M448.8 137.972H469.6V145.672H439V98.1719H448.8V137.972Z" fill="white"/>
<path d="M512.8 123.072C512.8 127.372 511.9 131.672 510.2 135.372C508.8 138.772 506.2 141.672 503 143.672C496.4 147.372 488.4 147.372 481.8 143.672C478.7 141.672 476.1 138.772 474.6 135.672C472.9 131.972 472 127.672 472 123.372V121.072C472 116.772 472.9 112.472 474.6 108.472C476 105.072 478.6 102.172 481.8 100.172C488.4 96.472 496.4 96.472 503 100.172C506.1 102.172 508.7 105.072 510.2 108.472C511.9 112.472 512.8 116.472 512.8 120.772V123.072ZM502.8 120.772C503.1 116.772 502.2 112.772 500.2 109.372C497.1 105.072 491 104.272 486.8 107.372C485.9 107.972 485.4 108.472 484.8 109.372C482.8 112.772 481.9 116.772 481.9 120.572V122.872C481.6 126.872 482.5 130.872 484.5 134.272C487.6 138.572 493.4 139.372 497.7 136.572C498.6 135.972 499.1 135.172 500 134.272C502 130.872 502.9 126.872 502.6 122.872V120.872H502.8V120.772Z" fill="white"/>
<path d="M35.6 213.772C35.6 211.472 34.7 209.472 33 208.072C30.1 206.372 27 204.972 23.6 203.772C19.9 202.672 16.4 201.172 13 199.472C5.8 195.772 2.1 190.272 2.1 183.772C2.1 180.672 3 177.172 5 174.572C7 171.672 9.9 169.472 13.3 168.272C17 166.872 21.3 165.972 25.3 165.972C29.3 165.972 33.6 166.872 37.3 168.572C40.7 169.972 43.6 172.272 45.6 175.472C47.6 178.572 48.5 182.072 48.5 185.472H35.6C35.6 182.872 34.7 180.372 32.7 178.572C30.4 176.872 27.8 175.972 25 176.272C22.4 175.972 19.9 176.872 17.6 178.272C15.9 179.372 15 181.372 15 183.672C15 185.672 16.1 187.672 18.1 188.772C21 190.472 24.1 191.872 27.3 192.772C33.3 194.172 38.7 197.072 43.3 201.072C46.7 204.172 48.4 208.772 48.4 213.372C48.7 218.472 46.4 223.372 42.1 226.272C37.2 229.672 31.2 231.172 25.5 230.872C20.9 230.872 16.3 229.972 12.3 228.272C8.6 226.872 5.4 224.272 3.1 221.072C1.1 217.972 0 214.172 0 210.172H13.2C13.2 217.072 17.5 220.772 25.8 220.772C28.4 221.072 30.9 220.172 33 218.772C34.5 217.772 35.6 215.772 35.6 213.772Z" fill="white"/>
<path d="M109.2 200.272C109.2 205.972 108.1 211.472 106.1 216.572C104.1 221.172 100.7 224.872 96.7 227.472C88.1 232.572 77.2 232.572 68.7 227.472C64.4 224.872 61.3 221.172 59.3 216.572C57 211.472 55.9 205.972 55.9 200.572V197.472C55.9 191.772 57 186.272 59.3 181.172C61.3 176.572 64.7 172.872 68.7 170.272C77.3 165.172 88.2 165.172 96.7 170.272C101 172.872 104.1 176.572 106.1 181.172C108.4 186.272 109.5 191.772 109.5 197.472V200.372H109.2V200.272ZM96 197.472C96.3 192.372 95.1 186.872 92.6 182.272C88.6 176.572 80.6 175.372 75.1 179.672C74 180.572 73.1 181.372 72.5 182.272C69.9 186.872 68.8 191.972 69.1 197.172V200.272C68.8 205.372 70 210.872 72.5 215.172C76.5 220.872 84.2 222.072 90 218.272C91.1 217.372 92 216.572 92.9 215.372C95.5 210.772 96.9 205.672 96.3 200.472L96 197.472Z" fill="white"/>
<path d="M151.5 213.772C151.5 211.472 150.6 209.472 148.9 208.072C146 206.372 142.9 204.972 139.5 203.772C135.8 202.672 132.3 201.172 128.9 199.472C121.7 195.772 118 190.272 118 183.772C118 180.672 118.9 177.172 120.9 174.572C122.9 171.672 125.8 169.472 129.2 168.272C132.9 166.872 137.2 165.972 141.2 165.972C145.2 165.972 149.5 166.872 153.2 168.572C156.6 169.972 159.5 172.272 161.5 175.472C163.5 178.572 164.4 182.072 164.4 185.472H151.5C151.5 182.872 150.6 180.372 148.6 178.572C146.3 176.872 143.7 175.972 140.9 176.272C138.3 175.972 135.8 176.872 133.5 178.272C131.8 179.372 130.9 181.372 130.9 183.672C130.9 185.672 132 187.672 134 188.772C136.9 190.472 140 191.872 143.2 192.772C149.2 194.172 154.6 197.072 159.2 201.072C162.6 204.172 164.3 208.772 164.3 213.372C164.6 218.472 162.3 223.072 158 226.272C153.1 229.672 147.1 231.172 141.4 230.872C136.8 230.872 132.5 229.972 128.2 228.272C124.5 226.872 121.3 224.272 119 220.872C117 217.772 115.9 213.972 115.9 209.972H129.1C129.1 216.872 133.4 220.572 141.7 220.572C144.3 220.872 146.8 219.972 148.9 218.572C150.6 218.072 151.5 216.072 151.5 213.772Z" fill="white"/>
<path d="M220.7 177.672H201.6V230.372H188.4V177.672H169.2V167.172H220.7V177.672Z" fill="white"/>
<path d="M266.2 202.872H241.1V219.772H270.5V230.372H228.2V167.172H270.5V177.672H241.1V192.872H266.2V202.872Z" fill="white"/>
<path d="M329.5 230.372H316.3L291.1 188.872V230.372H278V167.172H291.1L316.6 208.872V167.172H329.5V230.372Z" fill="white"/>
<path d="M354.4 167.172H341.5V230.372H354.4V167.172Z" fill="white"/>
<path d="M366.6 230.372V167.372H388.6C394.6 167.072 400.9 168.472 406.1 171.672C410.1 174.772 412.4 179.672 412.1 184.572C412.1 187.472 411.2 190.272 409.8 192.872C408.1 195.172 405.8 197.172 403.2 197.972C406.3 198.572 408.9 200.272 410.9 202.872C412.9 205.472 413.8 208.572 413.8 212.072C414.1 217.172 412.1 222.372 408.1 225.772C403.2 229.172 397.5 230.872 391.5 230.672L366.6 230.372ZM379.5 193.772H389.2C395.8 193.772 398.9 190.872 398.9 186.072C399.2 183.772 398.3 181.472 396.3 179.772C394 178.372 391.2 177.772 388.3 177.772H379.1V193.772H379.5ZM379.5 202.872V220.072H390.7C393.3 220.372 395.8 219.472 397.9 217.772C399.6 216.372 400.5 214.072 400.5 211.772C400.5 206.072 397.6 203.172 391.6 202.872H379.5Z" fill="white"/>
<path d="M436.2 219.772H463.9V230.372H423.3V167.172H436.2V219.772Z" fill="white"/>
<path d="M509.1 202.872H484.2V219.772H513.7V230.372H471.4V167.172H513.4V177.672H484.2V192.872H509.1V202.872Z" fill="white"/>
<path d="M60.4 41.572C60.6 47.872 59.3 54.172 56.9 59.872C54.7 64.972 51.1 69.072 46.5 72.172C36.8 77.872 24.8 77.972 15 72.472C10.4 69.572 6.59999 65.372 4.19999 60.472C1.59999 54.772 0.199991 48.672 0.199991 42.472V38.972C-8.706e-06 32.672 1.29999 26.372 3.89999 20.572C6.19999 15.472 9.69999 11.172 14.5 8.27196C24.2 2.57196 36.2 2.47196 45.8 8.07196C50.6 10.972 54.2 15.172 56.6 20.172C59.2 25.872 60.6 32.172 60.4 38.472V41.572ZM45.6 38.472C45.6 31.072 44.2 25.372 41.5 21.572C36.9 15.272 28 14.072 21.8 18.672C20.7 19.472 19.6 20.472 18.9 21.572C16.3 25.372 14.9 30.972 15.1 38.272V41.672C15.1 48.872 16.5 54.372 19.2 58.372C23.7 64.672 32.3 66.072 38.6 61.572C39.8 60.672 41.1 59.572 41.8 58.372C44.4 54.572 45.6 48.972 45.6 41.672V38.472Z" fill="white"/>
<path d="M69.3 75.172L68.8 4.47198L93.5 4.27197C102.1 4.27197 108.6 5.77198 113 9.07198C117.5 12.272 119.8 17.072 119.8 23.472C120 26.672 119 29.972 117.2 32.672C115.4 35.272 112.9 37.472 109.8 38.472C113.2 39.272 116.3 41.072 118.4 43.872C120.6 46.772 121.6 50.372 121.6 53.972C121.6 60.772 119.4 65.972 115.1 69.472C110.8 72.972 104.7 74.872 96.7 74.872L69.3 75.172ZM83.6 33.972H94.4C101.8 33.772 105.5 30.872 105.3 25.072C105.5 22.472 104.5 19.872 102.4 18.172C100.6 16.772 97.6 15.972 93.5 16.172H83.3L83.6 33.972ZM83.7 44.272L83.9 63.272L96.3 63.072C99.2 63.272 102 62.272 104.3 60.572C106.3 58.872 107.2 56.472 107.2 53.772C107.2 47.272 103.8 44.072 97.1 43.972L83.7 44.272Z" fill="white"/>
<path d="M158.8 3.87193L173.4 3.67194L173.7 52.4719C173.9 56.5719 172.8 60.7719 170.8 64.4719C168.8 67.8719 165.9 70.7719 162.5 72.4719C158.7 74.4719 154.5 75.3719 150.2 75.3719C142.7 75.3719 136.8 73.5719 132.7 69.8719C128.6 66.1719 126.4 60.7719 126.4 53.7719L141 53.5719C140.8 56.3719 141.6 59.0719 143.2 61.2719C145 63.0719 147.5 63.8719 150.1 63.7719C152.7 63.9719 155 62.8719 156.7 60.8719C158.5 58.5719 159.3 55.6719 159.2 52.7719L158.8 3.87193Z" fill="white"/>
<path d="M226.7 43.5719L198.8 43.6719L198.9 62.5719L231.8 62.4719V74.0719L184.5 74.3719L184 3.77191L231.3 3.47192V15.1719L198.6 15.4719L198.8 32.1719L226.7 32.0719V43.5719Z" fill="white"/>
<path d="M292.3 14.7719L270.7 14.9719L271 73.7719L256.5 73.9719L256.1 14.9719L234.7 15.1719L234.6 3.47192L292.2 2.97192L292.3 14.7719Z" fill="white"/>
<path d="M314.067 2.82738L299.467 2.92676L299.948 73.6268L314.548 73.5274L314.067 2.82738Z" fill="white"/>
<path d="M352.1 55.672L367.8 2.57195L384 2.37195L359.9 73.172L344.7 73.3719L319.7 2.87195L335.8 2.67195L352.1 55.672Z" fill="white"/>
<path d="M498.8 53.672C499 51.172 497.9 48.8719 495.9 47.3719C492.7 45.3719 489.1 43.8719 485.5 42.7719C481.4 41.5719 477.4 39.972 473.5 37.972C465.5 33.672 461.4 27.872 461.4 20.472C461.4 16.772 462.5 13.272 464.6 10.172C466.9 6.97195 470.1 4.47194 473.8 3.07194C478.1 1.27194 482.7 0.471953 487.3 0.471953C491.9 0.271953 496.5 1.27194 500.8 3.07194C504.5 4.77194 507.7 7.37194 510 10.7719C512.2 14.1719 513.4 18.1719 513.4 22.1719L498.8 22.3719C499 19.5719 497.9 16.8719 495.7 14.8719C493.2 13.0719 490.2 11.9719 487.1 12.2719C484.2 12.0719 481.3 12.8719 478.8 14.5719C477 15.9719 475.9 18.2719 475.9 20.5719C475.9 23.0719 477.3 25.1719 479.4 26.2719C482.6 28.2719 486 29.6719 489.7 30.5719C498 33.0719 504 36.0719 507.8 39.7719C511.6 43.2719 513.6 48.372 513.6 53.472C513.9 59.172 511.3 64.5719 506.7 67.8719C502.1 71.3719 495.9 73.0719 488.1 73.2719C483 73.4719 478 72.3719 473.2 70.3719C469.1 68.6719 465.5 65.8719 462.9 62.2719C460.4 58.7719 459.2 54.472 459.2 50.172L473.8 49.972C473.8 57.772 478.6 61.672 487.8 61.472C490.7 61.672 493.6 60.8719 495.9 59.2719C497.9 58.2719 498.9 55.972 498.8 53.672Z" fill="white"/>
<path d="M401.7 28.972C402.6 27.472 403.7 26.072 404.9 24.972L394.5 13.572C391.9 16.072 389.7 18.972 387.9 22.172L401.7 28.972Z" fill="#5AB338"/>
<path d="M427 20.9719C428.5 21.7719 430.1 22.6719 431.3 23.7719L441.7 12.3719C438.9 10.0719 435.9 8.07194 432.5 6.67194L427 20.9719Z" fill="#C78D17"/>
<path d="M450.9 24.3719L437.1 31.2719C437.7 32.7719 438.2 34.472 438.5 36.172L453.9 34.7719C453.3 31.0719 452.4 27.5719 450.9 24.3719Z" fill="#C60A1C"/>
<path d="M436.1 29.272L449.9 22.372C448.2 19.172 446.1 16.372 443.4 13.772L433 25.272C434.3 26.472 435.3 27.872 436.1 29.272Z" fill="#358E34"/>
<path d="M398.9 39.072C398.9 38.772 398.9 38.472 398.9 38.172L383.5 36.772C383.5 37.572 383.3 38.272 383.3 39.072C383.3 41.972 383.6 44.872 384.4 47.672L399.1 43.372C399.1 41.972 398.9 40.672 398.9 39.072Z" fill="#365E24"/>
<path d="M434.1 51.6719C433 53.0719 431.8 54.1719 430.4 55.1719L438.5 68.2719C441.6 66.2719 444.2 63.7719 446.5 60.8719L434.1 51.6719Z" fill="#FFAD14"/>
<path d="M438.7 39.072C438.7 40.472 438.5 41.972 438.2 43.372L452.9 47.672C453.5 44.872 454 42.172 454 39.272C454 38.472 454 37.872 454 37.072L438.6 38.472C438.7 38.672 438.7 38.772 438.7 39.072Z" fill="#FD2919"/>
<path d="M403.7 51.9719L391.4 61.3719C393.7 64.1719 396.3 66.5719 399.4 68.5719L407.5 55.4719C406 54.4719 404.8 53.3719 403.7 51.9719Z" fill="#FE8B17"/>
<path d="M399.1 35.9719C399.4 34.2719 399.9 32.5719 400.6 31.0719L386.8 24.1719C385.3 27.3719 384.2 30.9719 383.7 34.5719L399.1 35.9719Z" fill="#3067A5"/>
<path d="M436.7 69.472L428.6 56.3719C427.1 57.1719 425.5 57.872 423.8 58.172L426.7 73.3719C430.3 72.7719 433.6 71.372 436.7 69.472Z" fill="#7D0425"/>
<path d="M437.6 45.3719C437 46.8719 436.4 48.4719 435.4 49.8719L447.7 59.0719C449.7 56.1719 451.2 53.0719 452.3 49.5719L437.6 45.3719Z" fill="#46A9BE"/>
<path d="M421.7 58.772C420.8 58.972 419.9 58.972 418.8 58.972C418 58.972 417.3 58.972 416.5 58.772L413.6 73.972C415.3 74.272 417 74.272 418.8 74.272C420.8 74.272 422.6 74.072 424.5 73.772L421.7 58.772Z" fill="#FE5413"/>
<path d="M420.1 19.272C421.8 19.472 423.5 19.772 425 20.172L430.5 5.77197C427.3 4.57197 423.7 3.97197 420.1 3.77197V19.272Z" fill="#FC121B"/>
<path d="M414.3 58.4719C412.6 57.9719 410.9 57.3719 409.4 56.6719L401.3 69.7719C404.4 71.5719 407.8 72.8719 411.4 73.5719L414.3 58.4719Z" fill="#E61384"/>
<path d="M412.8 20.072C414.3 19.572 416 19.272 417.9 19.172V3.77197C414.2 3.97197 410.7 4.57197 407.3 5.77197L412.8 20.072Z" fill="#09154F"/>
<path d="M402.3 50.172C401.4 48.772 400.5 47.0719 400 45.3719L385.3 49.672C386.4 53.172 388.1 56.472 390.2 59.472L402.3 50.172Z" fill="#C67515"/>
<path d="M406.5 23.472C407.7 22.372 409.3 21.672 410.8 20.872L405.3 6.57196C401.9 7.97196 399 9.77196 396.2 12.072L406.5 23.472Z" fill="#153774"/>
</svg>
